<svg width="21" height="24" viewBox="0 0 21 24" fill="none" xmlns="http://www.w3.org/2000/svg">
<path d="M17.0759 13.453C16.4157 10.1305 19.5693 8.18184 19.5693 8.18184C19.5693 8.18184 18.3406 6.4042 16.2756 5.94688C14.2117 5.48857 13.1787 6.06119 12.1477 6.49067C11.1157 6.92119 10.6008 6.92119 10.6008 6.92119C9.1115 6.92119 8.02284 5.34437 5.18542 6.06224C3.23064 6.55555 1.17282 8.81214 0.801022 11.5054C0.429222 14.1997 1.23155 17.6376 2.77848 20.302C4.32541 22.9685 5.90123 23.9706 7.01969 23.9994C8.13819 24.0272 9.25464 23.1981 10.6008 22.9963C11.9479 22.7964 12.777 23.4845 14.0984 23.8563C15.4146 24.2271 15.876 23.8831 17.392 22.5936C18.9122 21.3041 20.2882 17.6057 20.2882 17.6057C20.2882 17.6057 17.736 16.7776 17.0759 13.453Z" fill="#111111"/>
<path d="M14.1533 3.79731C15.6157 2.30705 15.1204 0 15.1204 0C15.1204 0 13.0667 0.360484 11.6907 1.79206C10.3158 3.22469 10.5434 5.48743 10.5434 5.48743C10.5434 5.48743 12.6908 5.28661 14.1533 3.79731Z" fill="#111111"/>
</svg>
